<?xml version="1.0" encoding="UTF-8" standalone="no"?>
<svg
   xmlns:dc="http://purl.org/dc/elements/1.1/"
   xmlns:cc="http://creativecommons.org/ns#"
   xmlns:rdf="http://www.w3.org/1999/02/22-rdf-syntax-ns#"
   xmlns:svg="http://www.w3.org/2000/svg"
   xmlns="http://www.w3.org/2000/svg"
   xmlns:sodipodi="http://sodipodi.sourceforge.net/DTD/sodipodi-0.dtd"
   xmlns:inkscape="http://www.inkscape.org/namespaces/inkscape"
   version="1.1"
   id="svg2"
   xml:space="preserve"
   width="595.2"
   height="195"
   viewBox="205 0 760 159"
   sodipodi:docname="Mera Pump.ai"><metadata
     id="metadata8"><rdf:RDF><cc:Work
         rdf:about=""><dc:format>image/svg+xml</dc:format><dc:type
           rdf:resource="http://purl.org/dc/dcmitype/StillImage" /></cc:Work></rdf:RDF></metadata><defs
     id="defs6"><clipPath
       clipPathUnits="userSpaceOnUse"
       id="clipPath18"><path
         d="M 0,314.433 H 594.845 V 0 H 0 Z"
         id="path16" /></clipPath></defs><sodipodi:namedview
     pagecolor="#ffffff"
     bordercolor="#666666"
     borderopacity="1"
     objecttolerance="10"
     gridtolerance="10"
     guidetolerance="10"
     inkscape:pageopacity="0"
     inkscape:pageshadow="2"
     inkscape:window-width="640"
     inkscape:window-height="480"
     id="namedview4" /><g
     id="g10"
     inkscape:groupmode="layer"
     inkscape:label="Mera Pump"
     transform="matrix(1.7,0,0,-1.2,80,269)"><g
       id="g12"><g
         id="g14"
         clip-path="url(#clipPath18)"><g
           id="g20"
           transform="translate(117.244,191.0958)"><path
             d="m 0,0 c 0,-19.791 16.044,-35.834 35.834,-35.834 19.791,0 35.834,16.043 35.834,35.834 0,19.791 -16.043,35.834 -35.834,35.834 C 16.044,35.834 0,19.791 0,0"
             style="fill:#f4f4f4;fill-opacity:1;fill-rule:nonzero;stroke:none"
             id="path22" /></g><g
           id="g24"
           transform="translate(143.6483,191.0958)"><path
             d="m 0,0 c 0,-5.208 4.222,-9.43 9.43,-9.43 5.208,0 9.429,4.222 9.429,9.43 0,5.208 -4.221,9.43 -9.429,9.43 C 4.222,9.43 0,5.208 0,0"
             style="fill:#0db04b;fill-opacity:1;fill-rule:nonzero;stroke:none"
             id="path26" /></g><g
           id="g28"
           transform="translate(143.2265,107.5045)"><path
             d="m 0,0 h -10.769 v 24.731 l 2.844,-0.844 c 5.761,-1.705 11.738,-2.571 17.763,-2.571 34.361,0 62.313,27.934 62.313,62.27 0,34.34 -27.952,62.274 -62.313,62.274 -34.336,0 -62.27,-27.934 -62.27,-62.274 V -0.71 H -64.577 V -16.491 H 0 Z m -69.009,3.722 h 12.145 v 79.864 c 0,36.782 29.921,66.706 66.702,66.706 36.803,0 66.745,-29.924 66.745,-66.706 0,-36.781 -29.942,-66.702 -66.745,-66.702 -5.462,0 -10.894,0.667 -16.175,1.978 V 4.432 H 4.432 v -25.355 h -73.441 z"
             style="fill:#0db04b;fill-opacity:1;fill-rule:nonzero;stroke:none"
             id="path30" /></g><g
           id="g32"
           transform="translate(88.578,192.3331)"><path
             d="M 0,0 V -1.241"
             style="fill:#0db04b;fill-opacity:1;fill-rule:nonzero;stroke:none"
             id="path34" /></g><g
           id="g36"
           transform="translate(116.1444,161.7325)"><path
             d="m 0,0 10.526,-7.57 c 7.696,-5.532 16.825,-8.453 26.394,-8.453 25.052,0 45.429,20.36 45.429,45.381 0,25.052 -20.377,45.429 -45.429,45.429 -25.025,0 -45.386,-20.377 -45.386,-45.429 V -59.414 H 0 Z m -21.762,29.358 c 0,32.38 26.324,58.725 58.682,58.725 32.38,0 58.726,-26.345 58.726,-58.725 0,-32.353 -26.346,-58.677 -58.726,-58.677 -8.249,0 -16.252,1.683 -23.623,4.934 v -48.324 h -35.059 z"
             style="fill:#0db04b;fill-opacity:1;fill-rule:nonzero;stroke:none"
             id="path38" /></g><g
           id="g40"
           transform="translate(101.0321,194.6822)"><path
             d="M 0,0 V -3.59"
             style="fill:#0db04b;fill-opacity:1;fill-rule:nonzero;stroke:none"
             id="path42" /></g><g
           id="g44"
           transform="translate(146.7128,207.1739)"><path
             d="M 0,0 11.316,17.116"
             style="fill:#0db04b;fill-opacity:1;fill-rule:nonzero;stroke:none"
             id="path46" /></g><g
           id="g48"
           transform="translate(148.3632,199.2623)"><path
             d="m 0,0 c -4.511,-2.604 -6.056,-8.371 -3.451,-12.881 2.603,-4.511 8.371,-6.056 12.881,-3.452 4.51,2.604 6.055,8.371 3.452,12.882 C 10.277,1.059 4.511,2.604 0,0"
             style="fill:#0db04b;fill-opacity:1;fill-rule:nonzero;stroke:none"
             id="path50" /></g><g
           id="g52"
           transform="translate(163.8192,204.6475)"><path
             d="M 0,0 20.48,-1.242"
             style="fill:#0db04b;fill-opacity:1;fill-rule:nonzero;stroke:none"
             id="path54" /></g><g
           id="g56"
           transform="translate(157.7929,199.2623)"><path
             d="m 0,0 c -4.51,2.604 -10.277,1.059 -12.881,-3.451 -2.604,-4.511 -1.059,-10.278 3.451,-12.882 4.511,-2.604 10.278,-1.059 12.882,3.452 C 6.056,-8.371 4.511,-2.604 0,0"
             style="fill:#0db04b;fill-opacity:1;fill-rule:nonzero;stroke:none"
             id="path58" /></g><g
           id="g60"
           transform="translate(170.1845,188.5694)"><path
             d="M 0,0 9.165,-18.358"
             style="fill:#0db04b;fill-opacity:1;fill-rule:nonzero;stroke:none"
             id="path62" /></g><g
           id="g64"
           transform="translate(162.5077,191.0958)"><path
             d="m 0,0 c 0,5.208 -4.222,9.43 -9.43,9.43 -5.208,0 -9.429,-4.222 -9.429,-9.43 0,-5.208 4.221,-9.43 9.429,-9.43 C -4.222,-9.43 0,-5.208 0,0"
             style="fill:#0db04b;fill-opacity:1;fill-rule:nonzero;stroke:none"
             id="path66" /></g><g
           id="g68"
           transform="translate(159.4433,175.0177)"><path
             d="M 0,0 -11.315,-17.115"
             style="fill:#0db04b;fill-opacity:1;fill-rule:nonzero;stroke:none"
             id="path70" /></g><g
           id="g72"
           transform="translate(157.7929,182.9293)"><path
             d="M 0,0 C 4.511,2.604 6.056,8.371 3.452,12.882 0.848,17.392 -4.919,18.937 -9.43,16.333 -13.94,13.729 -15.485,7.962 -12.881,3.452 -10.277,-1.059 -4.51,-2.604 0,0"
             style="fill:#0db04b;fill-opacity:1;fill-rule:nonzero;stroke:none"
             id="path74" /></g><g
           id="g76"
           transform="translate(142.3368,177.5445)"><path
             d="M 0,0 -20.48,1.242"
             style="fill:#0db04b;fill-opacity:1;fill-rule:nonzero;stroke:none"
             id="path78" /></g><g
           id="g80"
           transform="translate(148.3632,182.9293)"><path
             d="M 0,0 C 4.511,-2.604 10.277,-1.059 12.882,3.452 15.485,7.962 13.94,13.729 9.43,16.333 4.92,18.937 -0.848,17.392 -3.451,12.882 -6.056,8.371 -4.511,2.604 0,0"
             style="fill:#0db04b;fill-opacity:1;fill-rule:nonzero;stroke:none"
             id="path82" /></g><g
           id="g84"
           transform="translate(135.9716,193.6226)"><path
             d="M 0,0 -9.164,18.357"
             style="fill:#0db04b;fill-opacity:1;fill-rule:nonzero;stroke:none"
             id="path86" /></g><g
           id="g88"
           transform="translate(295.0019,171.5372)"><path
             d="m 0,0 v -47.35 c 0,-14.884 -9.233,-27.575 -22.262,-32.761 -4.006,-1.56 -8.348,-2.403 -12.902,-2.403 -4.596,0 -8.939,0.885 -12.944,2.445 -13.029,5.144 -22.22,17.835 -22.22,32.719 V 0 h 22.22 v -47.097 c 0,-7.126 5.776,-12.902 12.944,-12.902 7.126,0 12.902,5.776 12.902,12.902 V 0 Z"
             style="fill:#0db04b;fill-opacity:1;fill-rule:nonzero;stroke:none"
             id="path90" /></g><g
           id="g92"
           transform="translate(421.5673,141.067)"><path
             d="m 0,0 v -52.033 h -24.11 v 50.925 c 0,6.294 -5.097,11.391 -11.436,11.391 -6.293,0 -11.39,-5.097 -11.39,-11.391 v -50.925 h -24.11 v 50.925 c 0,6.294 -5.142,11.391 -11.434,11.391 -6.339,0 -11.436,-5.097 -11.436,-11.391 v -50.925 h -24.11 V 0 c 0,15.158 10.016,28.011 23.888,32.31 0.089,0 0.133,0.044 0.222,0.044 3.146,0.976 6.471,1.463 9.884,1.463 4.565,0 8.908,-0.886 12.898,-2.526 0.043,0 0.043,-0.045 0.088,-0.045 2.614,-1.063 5.097,-2.482 7.358,-4.166 0.752,-0.576 1.461,-1.152 2.171,-1.772 0.487,-0.444 0.931,-0.843 1.374,-1.286 0.443,-0.443 0.886,-0.931 1.286,-1.374 l 0.043,-0.044 v 0.044 c 3.236,3.634 7.269,6.56 11.878,8.51 4.034,1.684 8.465,2.659 13.12,2.659 3.368,0 6.648,-0.487 9.706,-1.418 C -10.149,28.232 0,15.291 0,0"
             style="fill:#0db04b;fill-opacity:1;fill-rule:nonzero;stroke:none"
             id="path94" /></g><g
           id="g96"
           transform="translate(324.5439,225.9107)"><path
             d="m 0,0 v -42.995 h -19.923 v 42.079 c 0,5.201 -4.211,9.412 -9.448,9.412 -5.2,0 -9.412,-4.211 -9.412,-9.412 v -42.079 h -19.922 v 42.079 c 0,5.201 -4.249,9.412 -9.449,9.412 -5.238,0 -9.449,-4.211 -9.449,-9.412 V -42.995 H -97.525 V 0 c 0,12.524 8.276,23.145 19.739,26.697 0.073,0 0.11,0.037 0.183,0.037 2.6,0.806 5.347,1.209 8.166,1.209 3.773,0 7.362,-0.733 10.659,-2.088 0.035,0 0.035,-0.037 0.073,-0.037 2.16,-0.879 4.211,-2.05 6.079,-3.442 0.622,-0.476 1.208,-0.952 1.794,-1.465 0.402,-0.366 0.769,-0.696 1.136,-1.062 0.366,-0.366 0.732,-0.769 1.062,-1.135 l 0.035,-0.037 v 0.037 c 2.674,3.003 6.007,5.42 9.816,7.031 3.333,1.392 6.995,2.198 10.841,2.198 2.783,0 5.493,-0.403 8.019,-1.172 C -8.387,23.328 0,12.635 0,0"
             style="fill:#f9a12c;fill-opacity:1;fill-rule:nonzero;stroke:none"
             id="path98" /></g><g
           id="g100"
           transform="translate(520.6278,130.8736)"><path
             d="m 0,0 c 0,-24.288 -19.679,-43.967 -43.966,-43.967 -5.364,0 -10.46,0.931 -15.203,2.66 v 29.473 c 3.502,-4.565 8.997,-7.446 15.203,-7.446 10.637,0 19.279,8.643 19.279,19.28 0,10.681 -8.642,19.324 -19.279,19.324 C -54.648,19.324 -63.29,10.681 -63.29,0 V -74.238 H -87.978 V 0 c 0,8.731 2.527,16.797 6.915,23.623 7.756,12.276 21.452,20.387 37.097,20.387 C -19.679,44.01 0,24.332 0,0"
             style="fill:#0db04b;fill-opacity:1;fill-rule:nonzero;stroke:none"
             id="path102" /></g><g
           id="g104"
           transform="translate(441.9276,249.5489)"><path
             d="m 0,0 v -13.971 c -0.785,0.71 -1.681,1.27 -2.615,1.718 -1.607,0.785 -3.4,1.195 -5.305,1.195 -2.166,0 -4.184,-0.56 -5.94,-1.531 V -65.038 H -32.649 V 4.483 H -13.86 V 0.561 c 1.906,0.485 3.885,0.747 5.94,0.747 1.83,0 3.586,-0.187 5.305,-0.561 C -1.72,0.561 -0.859,0.299 0,0"
             style="fill:#f9a12c;fill-opacity:1;fill-rule:nonzero;stroke:none"
             id="path106" /></g><g
           id="g108"
           transform="translate(353.7958,224.1178)"><path
             d="M 0,0 C 2.088,5.181 7.166,8.829 13.107,8.829 19.036,8.829 24.114,5.181 26.202,0 Z m 48.332,-5.323 c 0,19.462 -15.775,35.237 -35.225,35.237 -19.461,0 -35.237,-15.775 -35.237,-35.237 0,-19.462 15.776,-35.224 35.237,-35.224 10.118,0 19.243,4.266 25.662,11.097 l -14.925,14.925 c -2.591,-3.029 -6.445,-4.95 -10.737,-4.95 -5.619,0 -10.478,3.274 -12.759,8.017 h 47.429 c 0.374,1.985 0.555,4.034 0.555,6.135"
             style="fill:#f9a12c;fill-opacity:1;fill-rule:nonzero;stroke:none"
             id="path110" /></g><g
           id="g112"
           transform="translate(462.2333,219.6368)"><path
             d="m 0,0 c 0.196,-10.568 9.752,-19.794 19.346,-18.974 7.593,0.649 12.198,7.335 12.989,8.521 v -22.372 c -2.043,-0.976 -15.787,-7.267 -29.994,-0.655 -13.937,6.484 -19.715,21.38 -19.597,33.336 0.148,14.781 9.36,30.485 24.637,35.064 11.541,3.459 21.722,-0.877 24.954,-2.416 V 13.5 C 31.537,14.288 24.863,20.673 15.841,19.26 6.722,17.831 -0.17,9.161 0,0"
             style="fill:#f9a12c;fill-opacity:1;fill-rule:nonzero;stroke:none"
             id="path114" /></g><path
           d="m 513.709,183.521 h -19.141 v 71.91 h 19.141 z"
           style="fill:#f9a12c;fill-opacity:1;fill-rule:nonzero;stroke:none"
           id="path116" /></g></g></g></svg>
