<svg width="110" height="100" viewBox="0 0 110 100" fill="none" xmlns="http://www.w3.org/2000/svg">
<path fill-rule="evenodd" clip-rule="evenodd" d="M32.6294 0.0683594L51.8954 11.146V33.3032L32.6294 44.3808L13.3634 33.3022V11.146L32.6294 0.0683594ZM77.1222 0.0683594L96.3882 11.146V33.3032L77.1222 44.3808L57.8562 33.3022V11.146L77.1222 0.0683594Z" fill="#EBF8FF"/>
<path fill-rule="evenodd" clip-rule="evenodd" d="M55.2662 38.9387L74.5322 50.0163V72.1725L55.2662 83.2501L36.0002 72.1725V50.0163L55.2662 38.9387Z" fill="#EBF8FF"/>
<path d="M55.0706 84.8044L56.0084 84.8064L55.9935 88.6939L55.0566 88.6909L55.0706 84.8044ZM55.0477 91.023L55.9855 91.026L55.9706 94.9124L55.0338 94.9104L55.0477 91.023ZM55.0249 97.2425L55.9627 97.2445L55.9527 99.9654L55.0149 99.9634L55.0249 97.2425Z" fill="#045996"/>
<path fill-rule="evenodd" clip-rule="evenodd" d="M54.8758 0.0683594L84.6198 17.1716V51.377L54.8758 68.4802L25.1318 51.377V17.1716L54.8758 0.0683594Z" fill="#6FCF97"/>
<path d="M57.5909 42.5725C57.8507 42.5725 58.1119 42.468 58.3 42.2613C58.3836 42.17 58.4481 42.0629 58.4896 41.9464C58.5312 41.8298 58.5489 41.7061 58.5418 41.5825C58.5347 41.459 58.5029 41.3381 58.4482 41.227C58.404 41.1371 58.3456 41.0551 58.2753 40.984V40.9791L58.2242 40.9343L55.3041 38.377L55.3039 38.3768C55.0321 38.1398 54.6832 38.0092 54.3222 38.0092C53.9611 38.0092 53.6123 38.1398 53.3405 38.3768L53.3402 38.377L50.4198 40.9347C50.4197 40.9348 50.4197 40.9349 50.4196 40.9349C50.3261 41.0161 50.2498 41.1151 50.1952 41.2261C50.1406 41.3372 50.1088 41.4581 50.1017 41.5817C50.0946 41.7052 50.1123 41.8289 50.1539 41.9455C50.1954 42.0621 50.26 42.1693 50.3436 42.2606L50.3437 42.2608C50.5135 42.4457 50.7491 42.557 51.0001 42.5709C51.251 42.5848 51.4976 42.5002 51.6868 42.3352L51.6871 42.335L53.3694 40.8618V50.213C53.3694 50.734 53.7988 51.1501 54.3226 51.1501C54.8458 51.1501 55.275 50.733 55.275 50.213V40.8619L56.9573 42.3358L56.9574 42.3359C57.1326 42.4891 57.3579 42.5732 57.5909 42.5725ZM57.5909 42.5725C57.5908 42.5725 57.5908 42.5725 57.5907 42.5725V42.4225L57.5912 42.5725C57.5911 42.5725 57.591 42.5725 57.5909 42.5725Z" fill="white" stroke="white" stroke-width="0.3"/>
<path d="M59.0901 45.9542H65.6894C70.9784 45.9542 75.2821 41.8133 75.2821 36.7229C75.2821 31.6324 70.9784 27.4907 65.6894 27.4907C64.9967 27.4907 64.3109 27.5621 63.6399 27.7032C62.8788 25.9069 61.6461 23.3479 60.0712 22.1899C58.1176 20.7509 55.7814 19.9905 53.3165 19.9905C50.9086 19.9905 48.6164 20.719 46.6887 22.0979C44.9752 23.3219 43.6849 25.9571 42.9292 27.8529C41.0722 28.3674 39.412 29.423 38.1618 30.8841C36.7715 32.515 36.0057 34.5834 36 36.7229C36 41.8133 40.3028 45.9542 45.5919 45.9542H49.9836" stroke="white" stroke-width="2.3"/>
<path d="M13.5055 10.5193L13.2223 10.9517L10.8977 9.6367L11.1808 9.20532L13.5055 10.5193ZM9.78499 8.41674L9.50186 8.84813L7.17718 7.53417L7.46032 7.1018L9.78499 8.41674ZM6.06452 6.31322L5.78238 6.74461L3.4567 5.43066L3.73984 4.99828L6.06452 6.31322ZM2.34503 4.20971L2.0619 4.64208L0.235931 3.60912L0.519065 3.17773L2.34503 4.20971ZM96.2461 10.5193L96.5293 10.9517L98.8539 9.6367L98.5708 9.20532L96.2461 10.5193ZM99.9666 8.41674L100.25 8.84813L102.574 7.53417L102.291 7.1018L99.9666 8.41674ZM103.687 6.31322L103.969 6.74461L106.295 5.43066L106.012 4.99828L103.687 6.31322ZM107.407 4.20971L107.69 4.64208L109.516 3.60912L109.233 3.17773L107.407 4.20971Z" fill="#045996"/>
</svg>
