<svg width="110" height="100" viewBox="0 0 110 100" fill="none" xmlns="http://www.w3.org/2000/svg">
<path fill-rule="evenodd" clip-rule="evenodd" d="M32.5829 0.0686035L51.9616 11.1462V33.3034L32.5829 44.381L13.2042 33.3024V11.1462L32.5829 0.0686035ZM77.3359 0.0686035L96.7145 11.1462V33.3034L77.3359 44.381L57.9572 33.3024V11.1462L77.3359 0.0686035Z" fill="#EBF8FF"/>
<path fill-rule="evenodd" clip-rule="evenodd" d="M55.3521 38.9385L74.7308 50.0161V72.1723L55.3521 83.2499L35.9734 72.1723V50.0161L55.3521 38.9385Z" fill="#EBF8FF"/>
<path d="M55.1553 84.8043L56.0986 84.8063L56.0836 88.6937L55.1413 88.6908L55.1553 84.8043ZM55.1323 91.0229L56.0756 91.0258L56.0606 94.9123L55.1183 94.9103L55.1323 91.0229ZM55.1093 97.2424L56.0526 97.2444L56.0426 99.9653L55.0993 99.9633L55.1093 97.2424Z" fill="#045996"/>
<path fill-rule="evenodd" clip-rule="evenodd" d="M54.9594 0.0686035L84.8773 17.1718V51.3772L54.9594 68.4804L25.0415 51.3772V17.1718L54.9594 0.0686035Z" fill="#BB6BD9"/>
<path d="M13.3471 10.5193L13.0624 10.9517L10.7241 9.63671L11.0089 9.20532L13.3471 10.5193ZM9.60491 8.41674L9.32012 8.84813L6.98184 7.53418L7.26663 7.1018L9.60491 8.41674ZM5.86267 6.31322L5.57888 6.74461L3.23961 5.43066L3.5244 4.99828L5.86267 6.31322ZM2.12143 4.20971L1.83664 4.64208L0 3.60912L0.28479 3.17773L2.12143 4.20971ZM96.5717 10.5193L96.8565 10.9517L99.1947 9.63671L98.9099 9.20532L96.5717 10.5193ZM100.314 8.41674L100.599 8.84813L102.937 7.53418L102.652 7.1018L100.314 8.41674ZM104.056 6.31322L104.34 6.74461L106.679 5.43066L106.394 4.99828L104.056 6.31322ZM107.797 4.20971L108.082 4.64208L109.919 3.60912L109.634 3.17773L107.797 4.20971Z" fill="#045996"/>
<path d="M73.3333 40.8843L73.3328 30.0887C73.3302 29.7928 73.1624 29.5224 72.8961 29.3873L54.0803 19.833C53.85 19.716 53.5768 19.716 53.3465 19.833L48.2068 22.4428C47.8115 22.6435 47.6555 23.1233 47.8582 23.5146C48.0608 23.9058 48.5452 24.0604 48.9406 23.8597L53.7134 21.4362L69.199 29.2995H55.9874C55.6555 28.3728 54.7617 27.7071 53.7134 27.7071C52.3833 27.7071 51.3011 28.7786 51.3011 30.0957C51.3011 31.4127 52.3833 32.4843 53.7134 32.4843C54.7616 32.4843 55.6555 31.8186 55.9874 30.8919H69.199L53.7134 38.7552L36.6599 30.0958L42.5012 27.1297C42.8964 26.929 43.0524 26.4492 42.8497 26.0579C42.6471 25.6666 42.1625 25.5121 41.7673 25.7128L34.5308 29.3873C34.2623 29.5236 34.0936 29.7971 34.0936 30.0958C34.0936 30.3944 34.2623 30.668 34.5308 30.8042L41.0825 34.131V40.9785C41.0825 41.8787 41.5851 42.6931 42.394 43.1039L52.6127 48.2928C52.9574 48.4678 53.3355 48.5552 53.7135 48.5552C54.0915 48.5552 54.4697 48.4677 54.8142 48.2927L65.033 43.1039C65.842 42.6931 66.3445 41.8787 66.3445 40.9785V34.131L71.7252 31.3988V40.8843C70.6089 41.2252 69.7953 42.2561 69.7953 43.4717V46.0195C69.7953 46.4593 70.1553 46.8157 70.5994 46.8157H74.4591C74.9032 46.8157 75.2632 46.4593 75.2632 46.0195V43.4717C75.2632 42.256 74.4496 41.2251 73.3333 40.8843ZM53.7135 30.892C53.2701 30.892 52.9094 30.5348 52.9094 30.0958C52.9094 29.6568 53.2701 29.2996 53.7135 29.2996C54.1569 29.2996 54.5176 29.6568 54.5176 30.0958C54.5176 30.5348 54.1569 30.892 53.7135 30.892ZM64.7363 40.9785C64.7363 41.2786 64.5688 41.55 64.2991 41.687L54.0804 46.8758C53.8507 46.9925 53.5762 46.9924 53.3465 46.8758L43.1278 41.687C42.8581 41.55 42.6906 41.2786 42.6906 40.9785V34.9477L53.3465 40.3585C53.4616 40.417 53.5876 40.4462 53.7134 40.4462C53.8392 40.4462 53.9652 40.417 54.0803 40.3585L64.7362 34.9477L64.7363 40.9785ZM73.655 45.2234H71.4035V43.4717C71.4035 42.857 71.9084 42.357 72.5292 42.357C73.15 42.357 73.655 42.857 73.655 43.4717V45.2234Z" fill="white"/>
<path d="M47.8582 23.5146C47.6555 23.1233 47.8115 22.6435 48.2068 22.4428L41.7673 25.7128C42.1625 25.5121 42.6471 25.6666 42.8497 26.0579C43.0524 26.4492 42.8964 26.929 42.5012 27.1297L48.9406 23.8597C48.5452 24.0604 48.0608 23.9058 47.8582 23.5146Z" fill="white"/>
</svg>
