<svg width="110" height="100" viewBox="0 0 110 100" fill="none" xmlns="http://www.w3.org/2000/svg">
<path fill-rule="evenodd" clip-rule="evenodd" d="M32.7101 0.0683594L51.9762 11.146V33.3032L32.7101 44.3808L13.4441 33.3022V11.146L32.7101 0.0683594ZM77.2029 0.0683594L96.4689 11.146V33.3032L77.2029 44.3808L57.9369 33.3022V11.146L77.2029 0.0683594Z" fill="#EBF8FF"/>
<path fill-rule="evenodd" clip-rule="evenodd" d="M55.3469 38.9387L74.6129 50.0163V72.1725L55.3469 83.2501L36.0809 72.1725V50.0163L55.3469 38.9387Z" fill="#EBF8FF"/>
<path d="M55.1512 84.8044L56.089 84.8064L56.0741 88.6939L55.1373 88.6909L55.1512 84.8044ZM55.1284 91.023L56.0662 91.0259L56.0513 94.9124L55.1145 94.9104L55.1284 91.023ZM55.1055 97.2425L56.0433 97.2445L56.0334 99.9654L55.0956 99.9634L55.1055 97.2425Z" fill="#045996"/>
<path fill-rule="evenodd" clip-rule="evenodd" d="M54.9565 0.0683594L84.7005 17.1716V51.377L54.9565 68.4802L25.2126 51.377V17.1716L54.9565 0.0683594Z" fill="#44D4CC"/>
<path d="M13.5862 10.5193L13.3031 10.9517L10.9784 9.6367L11.2615 9.20532L13.5862 10.5193ZM9.86571 8.41674L9.58257 8.84813L7.2579 7.53417L7.54103 7.1018L9.86571 8.41674ZM6.14523 6.31322L5.86309 6.74461L3.53742 5.43066L3.82055 4.99828L6.14523 6.31322ZM2.42574 4.20971L2.14261 4.64208L0.316645 3.60912L0.599779 3.17773L2.42574 4.20971ZM96.3268 10.5193L96.61 10.9517L98.9347 9.6367L98.6515 9.20532L96.3268 10.5193ZM100.047 8.41674L100.33 8.84813L102.655 7.53417L102.372 7.1018L100.047 8.41674ZM103.768 6.31322L104.05 6.74461L106.376 5.43066L106.092 4.99828L103.768 6.31322ZM107.487 4.20971L107.77 4.64208L109.596 3.60912L109.313 3.17773L107.487 4.20971Z" fill="#045996"/>
<path d="M41.0895 44.0395C41.4173 43.7131 41.4173 43.1838 41.0895 42.8573C40.7618 42.531 40.2303 42.531 39.9025 42.8573L36.6993 46.0477C36.3716 46.3741 36.3716 46.9034 36.6993 47.2299C36.8631 47.3931 37.078 47.4748 37.2928 47.4748C37.5076 47.4748 37.7224 47.3931 37.8862 47.2299L41.0895 44.0395Z" fill="white"/>
<path d="M62.2132 21.6604C61.4689 22.4017 61.0589 23.3873 61.0589 24.4356C61.0589 25.484 61.4689 26.4696 62.2132 27.2109C62.9814 27.976 63.9906 28.3585 64.9997 28.3585C66.0089 28.3585 67.018 27.976 67.7862 27.2109C68.5306 26.4696 68.9404 25.484 68.9404 24.4356C68.9404 23.3873 68.5305 22.4017 67.7862 21.6604C66.2498 20.1301 63.7498 20.1301 62.2132 21.6604ZM66.5993 26.0288C65.7173 26.9074 64.2822 26.9073 63.4001 26.0288C62.9728 25.6032 62.7376 25.0376 62.7376 24.4356C62.7376 23.8339 62.9729 23.268 63.4001 22.8425C63.8412 22.4032 64.4204 22.1836 64.9997 22.1836C65.5789 22.1836 66.1584 22.4033 66.5993 22.8425C67.0266 23.268 67.2619 23.8338 67.2619 24.4356C67.2619 25.0376 67.0266 25.6032 66.5993 26.0288Z" fill="white"/>
<path d="M43.7365 45.4935C43.4088 45.1672 42.8774 45.1672 42.5496 45.4935L38.0563 49.9687C37.7285 50.2951 37.7285 50.8244 38.0563 51.1509C38.2202 51.3141 38.435 51.3958 38.6498 51.3958C38.8645 51.3958 39.0794 51.3141 39.2432 51.1509L43.7365 46.6758C44.0643 46.3492 44.0643 45.82 43.7365 45.4935Z" fill="white"/>
<path fill-rule="evenodd" clip-rule="evenodd" d="M72.4278 16.4558C72.7115 16.5343 72.9333 16.755 73.0121 17.0377C73.8609 20.0841 73.6959 23.384 72.5348 26.5804C71.635 29.0572 70.1265 31.4661 68.3962 33.1894L65.7864 35.7887L64.3094 45.2054C64.2819 45.3804 64.1994 45.5422 64.0735 45.6675L58.0263 51.6903C57.8659 51.85 57.6512 51.9351 57.4326 51.9351C57.3302 51.9351 57.227 51.9165 57.1279 51.8781C56.8177 51.7576 56.6082 51.4658 56.5942 51.1343L56.3434 45.1935L54.8483 46.6825C54.5205 47.0088 53.989 47.0088 53.6613 46.6825L52.7887 45.8134L48.7938 48.4092C48.4613 48.6254 48.0224 48.5797 47.7416 48.3002L41.038 41.6238C40.7573 41.3442 40.7117 40.9071 40.9286 40.576L43.5349 36.5972L42.6623 35.7282C42.3345 35.4017 42.3345 34.8724 42.6623 34.546L44.1573 33.057L38.1921 32.8071C37.8594 32.7932 37.5663 32.5846 37.4454 32.2756C37.3244 31.9666 37.3985 31.6156 37.634 31.3809L43.6813 25.3581C43.8071 25.2329 43.9695 25.1507 44.1452 25.1233L53.6003 23.6524L56.2103 21.0531C57.9406 19.3297 60.3593 17.8274 62.8462 16.9312C66.0557 15.7748 69.369 15.6103 72.4278 16.4558ZM64.4057 34.7994L67.2091 32.0073C69.5446 29.6814 73.0052 24.158 71.5145 17.9472C65.2785 16.4625 59.7327 19.9091 57.3971 22.2351L54.6026 25.0184C54.5964 25.0247 54.5901 25.0309 54.5838 25.037L51.5868 25.6577L44.6747 26.733L40.1727 31.2168L45.7697 31.4512L48.115 29.1155C48.4427 28.7891 48.9743 28.7891 49.3019 29.1155C49.6298 29.442 49.6298 29.9713 49.3019 30.2977L46.6983 32.8907L46.6942 32.8948L44.4428 35.1371L45.1912 35.8825C45.2001 35.891 45.2086 35.8995 45.217 35.9082L48.7553 39.4321L57.6272 30.5961C57.955 30.2697 58.4865 30.2698 58.8141 30.5961C59.142 30.9226 59.1419 31.4519 58.8141 31.7783L49.9422 40.6142L53.4803 44.138C53.4873 44.1446 53.4941 44.1514 53.5009 44.1582L53.5063 44.1638L54.2548 44.9092L56.5061 42.6671L56.5103 42.6629L59.1139 40.0698C59.4417 39.7435 59.9732 39.7435 60.3009 40.0698C60.6287 40.3963 60.6287 40.9256 60.3009 41.252L57.9557 43.5878L58.191 49.1621L62.6931 44.6782L63.7728 37.7942L64.4057 34.7994ZM42.7067 40.9213L48.447 46.6383L51.5758 44.6053L48.7554 41.7964L47.5683 40.6142L44.7479 37.8052L42.7067 40.9213Z" fill="white"/>
<path d="M45.3161 48.249L42.1128 51.4393C41.7851 51.7657 41.7851 52.295 42.1128 52.6215C42.2767 52.7847 42.4915 52.8663 42.7063 52.8663C42.9211 52.8663 43.1359 52.7847 43.2998 52.6215L46.5031 49.4312C46.8308 49.1048 46.8308 48.5755 46.5031 48.249C46.1754 47.9225 45.6439 47.9225 45.3161 48.249Z" fill="white"/>
</svg>
