<svg width="110" height="100" viewBox="0 0 110 100" fill="none" xmlns="http://www.w3.org/2000/svg">
<path fill-rule="evenodd" clip-rule="evenodd" d="M32.9523 0.0683594L52.2183 11.146V33.3032L32.9523 44.3808L13.6863 33.3022V11.146L32.9523 0.0683594ZM77.4451 0.0683594L96.7111 11.146V33.3032L77.4451 44.3808L58.179 33.3022V11.146L77.4451 0.0683594Z" fill="#EBF8FF"/>
<path fill-rule="evenodd" clip-rule="evenodd" d="M55.5891 38.9387L74.8552 50.0163V72.1725L55.5891 83.2501L36.3231 72.1725V50.0163L55.5891 38.9387Z" fill="#EBF8FF"/>
<path d="M55.3934 84.8044L56.3312 84.8064L56.3163 88.6939L55.3795 88.6909L55.3934 84.8044ZM55.3706 91.023L56.3084 91.0259L56.2935 94.9124L55.3566 94.9104L55.3706 91.023ZM55.3477 97.2425L56.2855 97.2445L56.2756 99.9654L55.3378 99.9634L55.3477 97.2425Z" fill="#045996"/>
<path d="M26.9547 18.0393L55.1987 1.79858L83.4426 18.0393V50.5091L55.1987 66.7498L26.9547 50.5091V18.0393Z" fill="#FF902D"/>
<path d="M55.5 26C50.8099 26 47 29.8153 47 34.5C47 39.1847 50.8099 43 55.5 43C60.19 43 64 39.1847 64 34.5C64 29.8153 60.19 26 55.5 26ZM55.5 41.2201C51.8005 41.2201 48.7851 38.2077 48.7851 34.5C48.7851 30.7923 51.8006 27.7799 55.5 27.7799C59.1994 27.7799 62.2149 30.7924 62.2149 34.5C62.2149 38.2076 59.1995 41.2201 55.5 41.2201Z" fill="white" stroke="white" stroke-width="0.2"/>
<path d="M13.8284 10.5193L13.5452 10.9517L11.2206 9.6367L11.5037 9.20532L13.8284 10.5193ZM10.1079 8.41674L9.82477 8.84813L7.50009 7.53417L7.78322 7.1018L10.1079 8.41674ZM6.38742 6.31322L6.10528 6.74461L3.77961 5.43066L4.06274 4.99828L6.38742 6.31322ZM2.66794 4.20971L2.3848 4.64208L0.558838 3.60912L0.841972 3.17773L2.66794 4.20971ZM96.569 10.5193L96.8522 10.9517L99.1768 9.6367L98.8937 9.20532L96.569 10.5193ZM100.29 8.41674L100.573 8.84813L102.897 7.53417L102.614 7.1018L100.29 8.41674ZM104.01 6.31322L104.292 6.74461L106.618 5.43066L106.335 4.99828L104.01 6.31322ZM107.729 4.20971L108.013 4.64208L109.839 3.60912L109.555 3.17773L107.729 4.20971Z" fill="#045996"/>
<path d="M54.3466 17.7504L54.1929 17.7544L53.9917 17.7702C52.2613 17.9501 50.8691 19.244 50.5815 20.9579L50.411 21.95L50.346 21.978L49.5762 21.4239C48.9247 20.9548 48.1423 20.7042 47.3359 20.7042C46.3066 20.7042 45.3254 21.1132 44.6069 21.8447L42.7466 23.6988L42.6115 23.8411L42.4715 24.0071C41.3936 25.3574 41.3297 27.2443 42.3297 28.649L42.914 29.471L42.884 29.544L41.956 29.7011C40.1035 30.012 38.75 31.6123 38.75 33.4924V36.133L38.7544 36.3133L38.7702 36.5145C38.9501 38.2449 40.244 39.6371 41.9579 39.9247L42.95 40.093L42.978 40.16L42.429 40.9253C41.3319 42.4664 41.5071 44.5622 42.8451 45.8873L44.7073 47.7495C45.4318 48.474 46.4017 48.8774 47.4237 48.8774L47.6556 48.87L47.9014 48.8459C48.5501 48.7627 49.143 48.5283 49.6576 48.1578L50.47 47.578L50.6313 48.54C50.9428 50.3961 52.5428 51.75 54.4234 51.75H57.0702L57.2505 51.7456L57.4516 51.7298C59.182 51.5499 60.5742 50.256 60.8619 48.5421L61.024 47.58L61.093 47.552L61.8852 48.1177C62.4498 48.5243 63.1211 48.7681 63.8225 48.822L64.0399 48.8318C65.1346 48.8337 66.1069 48.4351 66.8364 47.7056L68.7055 45.8365L68.8392 45.6954L68.9791 45.5296C70.0562 44.18 70.1197 42.2931 69.12 40.8887L68.551 40.09L68.579 40.022L69.5396 39.8624C71.396 39.5508 72.75 37.9508 72.75 36.0703V33.4297L72.7481 33.2697L72.7357 33.0755C72.5817 31.3388 71.281 29.9278 69.5545 29.638L68.592 29.474L68.564 29.405L69.1301 28.6148C70.2247 27.077 70.0488 24.9813 68.7111 23.6566L66.8489 21.7944C66.1245 21.0699 65.1546 20.6665 64.1326 20.6665L63.9007 20.6739L63.6548 20.698C63.0061 20.7812 62.4133 21.0156 61.8986 21.3861L61.109 21.947L60.962 21.886L60.8052 20.9563C60.4942 19.1035 58.8939 17.75 57.0137 17.75L54.3466 17.7504ZM54.2726 19.7527L54.3998 19.7496L57.0137 19.75C57.9173 19.75 58.6835 20.398 58.8329 21.2881L59.1824 23.3612L59.9212 23.6263C60.1459 23.7103 60.3815 23.8072 60.6154 23.9124L61.3283 24.2463L63.0626 23.0125C63.3438 22.8101 63.6646 22.6943 64.0038 22.671L64.1669 22.666C64.6231 22.6665 65.0846 22.8585 65.4347 23.2086L67.3004 25.0743C67.9438 25.7115 68.028 26.7143 67.5021 27.4531L66.2638 29.1842L66.5901 29.8765C66.6839 30.0847 66.7779 30.3119 66.8652 30.5425L67.1211 31.2539L69.2218 31.6101C70.0816 31.7544 70.7159 32.4715 70.7489 33.3211L70.7501 33.4423V36.0703C70.7501 36.9739 70.1017 37.7401 69.2098 37.8898L67.1085 38.2398L66.8557 38.9468C66.7762 39.157 66.6821 39.3841 66.5796 39.6113L66.2503 40.3064L67.4907 42.0486C67.99 42.75 67.9361 43.7032 67.3654 44.3438L67.2712 44.4429L65.4222 46.2914C65.0698 46.6437 64.6076 46.8332 64.0831 46.8327L63.9414 46.8259C63.6392 46.8021 63.3193 46.6859 63.0512 46.4928L61.3133 45.25L60.6207 45.579C60.4151 45.6715 60.188 45.7655 59.9574 45.8528L59.2453 46.1069L58.8897 48.2098C58.746 49.066 58.0325 49.7014 57.1707 49.7473L57.0436 49.7504L54.4234 49.75C53.5197 49.75 52.7536 49.1018 52.6039 48.21L52.2528 46.105L51.54 45.8515C51.3326 45.7731 51.1124 45.6826 50.8971 45.5863L50.2489 45.2814L48.4932 46.5317C48.2125 46.7338 47.8917 46.8496 47.5525 46.8729L47.3894 46.878C46.9332 46.8774 46.4717 46.6854 46.1216 46.3353L44.2559 44.4696C43.6123 43.8322 43.5285 42.8294 44.0558 42.0886L45.2824 40.3811L44.9546 39.6882C44.8565 39.4744 44.7609 39.2476 44.6728 39.0185L44.4141 38.3147L42.2915 37.9527C41.434 37.8088 40.7986 37.0953 40.7527 36.2336L40.7496 36.1064L40.75 33.4924C40.75 32.5889 41.398 31.8227 42.2881 31.6733L44.3663 31.3222L44.6228 30.5926C44.7028 30.3768 44.7953 30.1493 44.8947 29.9256L45.2084 29.2449L43.9591 27.4893C43.4596 26.7875 43.5137 25.8344 44.0853 25.1929L44.1796 25.0935L46.0263 23.2538C46.3751 22.8987 46.8417 22.7042 47.3359 22.7042C47.7243 22.7042 48.0977 22.8238 48.4075 23.0468L50.1267 24.2852L50.8218 23.9528C51.0318 23.8565 51.2586 23.7609 51.4877 23.6728L52.1903 23.4167L52.5534 21.2918C52.6974 20.434 53.4109 19.7986 54.2726 19.7527Z" fill="white"/>
</svg>
