<svg width="110" height="101" viewBox="0 0 110 101" fill="none" xmlns="http://www.w3.org/2000/svg">
<g clip-path="url(#clip0)">
<path fill-rule="evenodd" clip-rule="evenodd" d="M32.7909 0.0683594L52.0569 11.1911V33.4384L32.7909 44.5611L13.5248 33.4374V11.1911L32.7909 0.0683594ZM77.2836 0.0683594L96.5496 11.1911V33.4384L77.2836 44.5611L58.0176 33.4374V11.1911L77.2836 0.0683594Z" fill="#EBF8FF"/>
<path fill-rule="evenodd" clip-rule="evenodd" d="M55.4276 39.0972L74.6937 50.2199V72.4662L55.4276 83.5889L36.1616 72.4662V50.2199L55.4276 39.0972Z" fill="#EBF8FF"/>
<path d="M55.232 85.1497L56.1698 85.1516L56.1549 89.0549L55.2181 89.0519L55.232 85.1497ZM55.2091 91.3935L56.1469 91.3965L56.132 95.2988L55.1952 95.2968L55.2091 91.3935ZM55.1863 97.6383L56.1241 97.6403L56.1141 100.372L55.1763 100.37L55.1863 97.6383Z" fill="#045996"/>
<path fill-rule="evenodd" clip-rule="evenodd" d="M55.0372 0.0683594L84.7812 17.2412V51.5858L55.0372 68.7586L25.2933 51.5858V17.2412L55.0372 0.0683594Z" fill="#F2C94C"/>
<path d="M13.6669 10.5621L13.3838 10.9962L11.0591 9.67593L11.3422 9.24278L13.6669 10.5621ZM9.94643 8.451L9.6633 8.88415L7.33862 7.56484L7.62175 7.13071L9.94643 8.451ZM6.22595 6.33892L5.94381 6.77207L3.61814 5.45276L3.90128 5.01863L6.22595 6.33892ZM2.50647 4.22684L2.22333 4.66098L0.397369 3.62382L0.680503 3.19067L2.50647 4.22684ZM96.4076 10.5621L96.6907 10.9962L99.0154 9.67593L98.7322 9.24278L96.4076 10.5621ZM100.128 8.451L100.411 8.88415L102.736 7.56484L102.453 7.13071L100.128 8.451ZM103.849 6.33892L104.131 6.77207L106.456 5.45276L106.173 5.01863L103.849 6.33892ZM107.568 4.22684L107.851 4.66098L109.677 3.62382L109.394 3.19067L107.568 4.22684Z" fill="#045996"/>
<path d="M72.135 50.2566H37.8649C37.4388 50.2566 37.093 50.6027 37.093 51.0293C37.093 51.4559 37.4388 51.8021 37.8649 51.8021H72.1351C72.5612 51.8021 72.907 51.4559 72.907 51.0293C72.9069 50.6027 72.5611 50.2566 72.135 50.2566Z" fill="white"/>
<path d="M43.4222 40.9834H38.7911C38.365 40.9834 38.0192 41.3296 38.0192 41.7562V51.0294C38.0192 51.4559 38.365 51.8021 38.7911 51.8021H43.4222C43.8482 51.8021 44.1941 51.4559 44.1941 51.0294V41.7561C44.1941 41.3296 43.8482 40.9834 43.4222 40.9834ZM42.6503 50.2566H39.5629V42.5289H42.6504V50.2566H42.6503Z" fill="white"/>
<path d="M52.6844 33.2556H48.0533C47.6272 33.2556 47.2814 33.6018 47.2814 34.0284V51.0294C47.2814 51.4559 47.6272 51.8022 48.0533 51.8022H52.6844C53.1105 51.8022 53.4563 51.4559 53.4563 51.0294V34.0284C53.4563 33.6018 53.1105 33.2556 52.6844 33.2556ZM51.9125 50.2566H48.8251V34.8011H51.9125V50.2566Z" fill="white"/>
<path d="M61.9466 36.3469H57.3155C56.8894 36.3469 56.5436 36.6932 56.5436 37.1197V51.0296C56.5436 51.4562 56.8894 51.8024 57.3155 51.8024H61.9466C62.3726 51.8024 62.7185 51.4562 62.7185 51.0296V37.1197C62.7185 36.6931 62.3726 36.3469 61.9466 36.3469ZM61.1747 50.2568H58.0873V37.8924H61.1747V50.2568Z" fill="white"/>
<path d="M71.2088 27.0735H66.5777C66.1516 27.0735 65.8058 27.4197 65.8058 27.8463V51.0294C65.8058 51.4559 66.1516 51.8022 66.5777 51.8022H71.2088C71.6349 51.8022 71.9807 51.4559 71.9807 51.0294V27.8463C71.9807 27.4196 71.6349 27.0735 71.2088 27.0735ZM70.4369 50.2566H67.3495V28.619H70.4369V50.2566Z" fill="white"/>
<path d="M41.1066 28.6191C39.4039 28.6191 38.0192 30.0055 38.0192 31.7102C38.0192 33.415 39.4039 34.8013 41.1066 34.8013C42.8094 34.8013 44.1941 33.415 44.1941 31.7102C44.1941 30.0055 42.8094 28.6191 41.1066 28.6191ZM41.1066 33.2558C40.2545 33.2558 39.5629 32.5618 39.5629 31.7102C39.5629 30.8586 40.2545 30.1647 41.1066 30.1647C41.9588 30.1647 42.6503 30.8587 42.6503 31.7102C42.6503 32.5618 41.9588 33.2558 41.1066 33.2558Z" fill="white"/>
<path d="M50.3689 20.8914C48.6661 20.8914 47.2814 22.2777 47.2814 23.9825C47.2814 25.6872 48.6661 27.0736 50.3689 27.0736C52.0716 27.0736 53.4563 25.6872 53.4563 23.9825C53.4563 22.2777 52.0716 20.8914 50.3689 20.8914ZM50.3689 25.528C49.5167 25.528 48.8252 24.834 48.8252 23.9825C48.8252 23.1308 49.5167 22.4369 50.3689 22.4369C51.221 22.4369 51.9125 23.1309 51.9125 23.9825C51.9125 24.8341 51.221 25.528 50.3689 25.528Z" fill="white"/>
<path d="M59.631 23.9824C57.9283 23.9824 56.5436 25.3688 56.5436 27.0735C56.5436 28.7783 57.9283 30.1646 59.631 30.1646C61.3338 30.1646 62.7185 28.7783 62.7185 27.0735C62.7185 25.3688 61.3338 23.9824 59.631 23.9824ZM59.631 28.619C58.7789 28.619 58.0874 27.9251 58.0874 27.0735C58.0874 26.2219 58.7789 25.528 59.631 25.528C60.4832 25.528 61.1747 26.222 61.1747 27.0735C61.1747 27.9251 60.4832 28.619 59.631 28.619Z" fill="white"/>
<path d="M68.8932 14.7092C67.1905 14.7092 65.8058 16.0956 65.8058 17.8003C65.8058 19.5051 67.1905 20.8914 68.8932 20.8914C70.596 20.8914 71.9807 19.5051 71.9807 17.8003C71.9807 16.0956 70.596 14.7092 68.8932 14.7092ZM68.8932 19.3458C68.0411 19.3458 67.3496 18.6519 67.3496 17.8003C67.3496 16.9487 68.0411 16.2548 68.8932 16.2548C69.7454 16.2548 70.4369 16.9488 70.4369 17.8003C70.4369 18.6519 69.7454 19.3458 68.8932 19.3458Z" fill="white"/>
<path d="M67.8034 18.8916C67.5023 18.5902 67.013 18.5902 66.7119 18.8916L60.7224 24.8882C60.4214 25.1896 60.4214 25.6796 60.7224 25.9809C60.8737 26.1308 61.0713 26.2066 61.2689 26.2066C61.4649 26.2066 61.6625 26.1324 61.8138 25.9809L67.8034 19.9843C68.1044 19.6829 68.1044 19.1929 67.8034 18.8916Z" fill="white"/>
<path d="M57.7648 25.29L52.8064 23.8744C52.3911 23.7538 51.9696 23.9949 51.8539 24.406C51.7366 24.8172 51.9743 25.2437 52.3833 25.3612L57.3417 26.7769C57.4127 26.7969 57.4838 26.8062 57.5532 26.8062C57.8898 26.8062 58.1985 26.5852 58.2957 26.2452C58.4131 25.8356 58.1754 25.4075 57.7648 25.29Z" fill="white"/>
<path d="M49.1647 24.9454C48.8992 24.6115 48.4145 24.5574 48.0811 24.8217L42.2613 29.4676C41.9278 29.735 41.8723 30.2202 42.1393 30.5541C42.2922 30.7457 42.5176 30.8447 42.7429 30.8447C42.9112 30.8447 43.081 30.789 43.223 30.6777L49.0428 26.0319C49.3762 25.7645 49.4318 25.2792 49.1647 24.9454Z" fill="white"/>
</g>
<defs>
<clipPath id="clip0">
<rect width="110" height="100.407" fill="white"/>
</clipPath>
</defs>
</svg>
