<svg width="110" height="100" viewBox="0 0 110 100" fill="none" xmlns="http://www.w3.org/2000/svg">
<path fill-rule="evenodd" clip-rule="evenodd" d="M32.8718 0.0683594L52.1376 11.1464V33.3025L32.8718 44.3805L13.606 33.3025V11.1464L32.8718 0.0683594Z" fill="#EBF8FF"/>
<path fill-rule="evenodd" clip-rule="evenodd" d="M77.3642 0.0683594L96.63 11.1464V33.3025L77.3642 44.3805L58.0984 33.3025V11.1464L77.3642 0.0683594Z" fill="#EBF8FF"/>
<path fill-rule="evenodd" clip-rule="evenodd" d="M55.5082 38.9385L74.774 50.0165V72.1726L55.5082 83.2506L36.2424 72.1726V50.0165L55.5082 38.9385Z" fill="#EBF8FF"/>
<path d="M55.3126 84.8042L56.2503 84.8066L56.236 88.6936L55.2983 88.6912L55.3126 84.8042ZM55.2897 91.0234L56.2274 91.0258L56.2131 94.9128L55.2754 94.9104L55.2897 91.0234ZM55.2668 97.2426L56.2045 97.245L56.1945 99.966L55.2568 99.9636L55.2668 97.2426Z" fill="#045996"/>
<path d="M26.8743 18.039L55.118 1.79858L83.3617 18.039V50.5093L55.118 66.7497L26.8743 50.5093V18.039Z" fill="#56CCF2"/>
<path d="M70.2308 23.2285L55.0203 15.2859L40.2308 23.2289V33.623C40.2395 41.873 45.2244 49.3315 52.9275 52.632L54.9672 53.5041L57.2987 52.5171C65.1181 49.3017 70.229 41.7694 70.2308 33.4173V23.2285ZM55.033 17.548L68.23 24.44L68.2308 33.4171C68.2292 40.8281 63.7645 47.5316 56.8621 50.5306L54.971 51.33L53.7145 50.7933L53.3621 50.6382C46.5914 47.5776 42.2385 40.9409 42.2308 33.6219L42.23 24.424L55.033 17.548Z" fill="white"/>
<path d="M13.7477 10.5199L13.4646 10.9518L11.1394 9.63722L11.4225 9.20528L13.7477 10.5199ZM10.0274 8.41654L9.74432 8.84847L7.41913 7.53389L7.70219 7.10196L10.0274 8.41654ZM6.30708 6.31322L6.02401 6.74515L3.69881 5.43057L3.98188 4.99864L6.30708 6.31322ZM2.58676 4.20989L2.30369 4.64183L0.478027 3.60967L0.761095 3.17773L2.58676 4.20989Z" fill="#045996"/>
<path d="M96.4881 10.5199L96.7712 10.9518L99.0964 9.63722L98.8133 9.20528L96.4881 10.5199ZM100.208 8.41654L100.492 8.84847L102.817 7.53389L102.534 7.10196L100.208 8.41654ZM103.929 6.31322L104.212 6.74515L106.537 5.43057L106.254 4.99864L103.929 6.31322ZM107.649 4.20989L107.932 4.64183L109.758 3.60967L109.475 3.17773L107.649 4.20989Z" fill="#898989"/>
<path d="M62.5063 30.2388C62.9268 29.8806 63.5579 29.9311 63.916 30.3516C64.2466 30.7396 64.229 31.3073 63.8937 31.674L63.8032 31.7613L54.9528 39.2993C54.3456 39.7835 53.4781 39.7202 52.9465 39.1767L52.8449 39.0616L49.2181 34.5128C48.8738 34.081 48.9448 33.4518 49.3766 33.1075C49.7752 32.7897 50.342 32.8257 50.6976 33.1728L50.7819 33.266L54.086 37.41L62.5063 30.2388Z" fill="white"/>
</svg>
